<svg xmlns="http://www.w3.org/2000/svg" version="1.1" xmlns:xlink="http://www.w3.org/1999/xlink" xmlns:svgjs="http://svgjs.com/svgjs" width="62.134" height="59.444"><svg xmlns:xlink="http://www.w3.org/1999/xlink" xmlns="http://www.w3.org/2000/svg" width="62.134" height="59.444"><g><path d="M.033 13.359c36.773-32.049 67.944.623 49.91 25.328a15.466 15.466 0 0 1-4.3 4.191c8.747-4.528 17.025-25.457 3.748-40.452 22.813 18.284 8.109 38 7.372 37.88a17.642 17.642 0 0 0 4.34-5.248c-7.473 18.6-22.677 25.323-39.437 18.662 4.686 3.539 11.971 4.474 18.946 5.307-30.393 4.269-43.235-27.01-31.123-38.928-5.765 5.568-7.287 9.368-9.326 16.753-1.392-10.3 8.572-23.933 20.438-27.679 13.026-4.326 23.481 2 26.152 9.158C42.986 4.924 25.024 2.113 5.444 13.96c3-4.017 12.949-8.914 18.063-9.019-2.575-.733-13.094 1.673-23.473 8.418" fill="#B51515"></path><path d="M.033 13.359c36.773-32.049 67.944.623 49.91 25.328a15.466 15.466 0 0 1-4.3 4.191c8.747-4.528 17.025-25.457 3.748-40.452 22.813 18.284 8.109 38 7.372 37.88a17.642 17.642 0 0 0 4.34-5.248c-7.473 18.6-22.677 25.323-39.437 18.662 4.686 3.539 11.971 4.474 18.946 5.307-30.393 4.269-43.235-27.01-31.123-38.928-5.765 5.568-7.287 9.368-9.326 16.753-1.392-10.3 8.572-23.933 20.438-27.679 13.026-4.326 23.481 2 26.152 9.158C42.986 4.924 25.024 2.113 5.444 13.96c3-4.017 12.949-8.914 18.063-9.019-2.576-.733-13.095 1.673-23.474 8.418z" fill="none" stroke="#D70014" stroke-width="0.015px"></path><path d="M20.691 27.501a10.484 10.484 0 1 1 10.484 10.485 10.483 10.483 0 0 1-10.484-10.484" fill="#FFD42F"></path><path d="M20.986 27.5a10.19 10.19 0 1 1 10.19 10.19 10.188 10.188 0 0 1-10.19-10.19" fill="#FFD638"></path><path d="M21.28 27.5a9.9 9.9 0 1 1 9.9 9.9 9.9 9.9 0 0 1-9.9-9.9" fill="#FFD842"></path><path d="M21.574 27.5a9.6 9.6 0 1 1 9.6 9.6 9.6 9.6 0 0 1-9.6-9.6" fill="#FEDA4B"></path><path d="M21.87 27.501a9.306 9.306 0 1 1 9.306 9.306 9.3 9.3 0 0 1-9.306-9.306" fill="#FEDC55"></path><path d="M22.164 27.499a9.012 9.012 0 1 1 9.011 9.011 9.01 9.01 0 0 1-9.011-9.011" fill="#FEDF5F"></path><path d="M22.458 27.5a8.718 8.718 0 1 1 8.717 8.717 8.717 8.717 0 0 1-8.717-8.717" fill="#FEE169"></path><path d="M22.75 27.5a8.426 8.426 0 1 1 8.425 8.427A8.425 8.425 0 0 1 22.75 27.5" fill="#FEE372"></path><path d="M23.045 27.5a8.132 8.132 0 1 1 8.134 8.133 8.13 8.13 0 0 1-8.131-8.133" fill="#FEE57C"></path><path d="M23.339 27.501a7.838 7.838 0 1 1 7.837 7.839 7.838 7.838 0 0 1-7.837-7.839" fill="#FEE787"></path><path d="M23.633 27.5a7.544 7.544 0 1 1 7.543 7.544 7.543 7.543 0 0 1-7.543-7.544" fill="#FEE991"></path><path d="M23.929 27.5a7.248 7.248 0 1 1 7.247 7.248 7.245 7.245 0 0 1-7.247-7.248" fill="#FEEB9B"></path><path d="M24.221 27.5a6.954 6.954 0 1 1 6.954 6.954 6.954 6.954 0 0 1-6.954-6.954" fill="#FEEDA5"></path><path d="M24.515 27.5a6.66 6.66 0 1 1 6.66 6.66 6.662 6.662 0 0 1-6.66-6.66" fill="#FEEFB0"></path><path d="M24.809 27.499a6.366 6.366 0 1 1 6.366 6.366 6.367 6.367 0 0 1-6.366-6.366" fill="#FFF2BA"></path><path d="M25.103 27.497a6.071 6.071 0 1 1 6.072 6.072 6.072 6.072 0 0 1-6.072-6.072" fill="#FFF4C5"></path><path d="M25.398 27.5a5.778 5.778 0 1 1 5.778 5.778 5.779 5.779 0 0 1-5.778-5.778" fill="#FFF6CF"></path><path d="M25.694 27.5a5.482 5.482 0 1 1 5.482 5.482 5.484 5.484 0 0 1-5.482-5.482" fill="#FFF8DA"></path><path d="M25.988 27.501a5.188 5.188 0 1 1 5.188 5.188 5.187 5.187 0 0 1-5.188-5.188" fill="#FFFAE5"></path><path d="M26.282 27.5a4.894 4.894 0 1 1 4.893 4.894 4.892 4.892 0 0 1-4.893-4.894" fill="#FFFCF0"></path><path d="M26.576 27.499a4.6 4.6 0 1 1 4.6 4.6 4.6 4.6 0 0 1-4.6-4.6" fill="#FFFEFB"></path><path d="M20.953 41.773a13.135 13.135 0 0 0 6.853 3.769 15.42 15.42 0 0 0 3.279.322c.456 0 .9-.018 1.333-.051a15.949 15.949 0 0 0 3.826-.733 13.412 13.412 0 0 0 3.9-2 13.106 13.106 0 0 0 1.493-1.3 13.75 13.75 0 0 0 1.785-2.217 14.946 14.946 0 0 0 2.037-4.86 8.591 8.591 0 0 0-.04-4.671 3.7 3.7 0 0 0-.173-.392c-.182-.329-.243.09-.781 1.445a13.83 13.83 0 0 1-.531 1.164 14.582 14.582 0 0 1-4.805 5.4 14.15 14.15 0 0 1-5.419 2.21 14.328 14.328 0 0 1-2.412.222 14.741 14.741 0 0 1-4.866-.722 12.406 12.406 0 0 1-5.627-3.9 20.46 20.46 0 0 1-3.3-5.833s-.07-.914-.575.623a7.807 7.807 0 0 0-.026 3.537 15.943 15.943 0 0 0 2.094 5.443 14.824 14.824 0 0 0 1.956 2.542" fill="#FFFFFF"></path><path d="M26.157 27.501a5.019 5.019 0 1 1 5.019 5.019 5.018 5.018 0 0 1-5.019-5.019" fill="#FFFCF0"></path><path d="m27.585 24.731 6.566.015s-.445 9.719-.546 10.07-.346.572-.447-.039c-.616-3.748.515-9.225-.938-9.192h-.629c-.548 0-.566 3.493-.75 4.057-.1.305-.272.256-.373.079-.29-.513-.068-4.136-.741-4.136h-.574c-.3 0-.965 2.32-1.629 2.686-.414.226-.682.175-.355-.233a4.514 4.514 0 0 0 .743-2.452h-.721c-.248 0 .4-.855.4-.855" fill="#D70014"></path></g></svg><style>@media (prefers-color-scheme: light) { :root { filter: none; } }
</style></svg>