<svg xmlns="http://www.w3.org/2000/svg" width="278.976" height="32.843" style="margin-bottom:0"><g fill="currentColor"><path d="M0 .423a15.754 15.754 0 0 1 3.215-.3 5.546 5.546 0 0 1 3.723.989 2.879 2.879 0 0 1 1.153 2.406 3.224 3.224 0 0 1-2.307 2.993v.064a3.47 3.47 0 0 1 2.811 3.4 3.621 3.621 0 0 1-1.173 2.73c-.93.871-2.467 1.272-4.69 1.272A20.647 20.647 0 0 1 0 13.817Zm1.759 5.581h1.6c1.84 0 2.932-.991 2.932-2.3 0-1.577-1.191-2.224-2.972-2.224a7.73 7.73 0 0 0-1.557.119Zm0 6.513a9.378 9.378 0 0 0 1.476.079c1.82 0 3.5-.665 3.5-2.649 0-1.838-1.6-2.629-3.518-2.629H1.761ZM12.605.223V8.31c0 3.035 1.355 4.327 3.173 4.327 2 0 3.318-1.333 3.318-4.327V.223h1.779v7.965c0 4.186-2.206 5.884-5.156 5.884-2.792 0-4.894-1.575-4.894-5.824V.223ZM23.865.405a25.687 25.687 0 0 1 3.761-.283c2.528 0 4.326.586 5.521 1.7a6.223 6.223 0 0 1 1.939 4.892 7.3 7.3 0 0 1-1.96 5.3c-1.294 1.274-3.4 1.96-6.046 1.96a24.641 24.641 0 0 1-3.215-.16Zm1.778 12.07a11.18 11.18 0 0 0 1.78.083c3.761.022 5.8-2.1 5.8-5.785.02-3.213-1.8-5.256-5.519-5.256a10 10 0 0 0-2.064.182ZM37.34.405a25.688 25.688 0 0 1 3.761-.283c2.528 0 4.326.586 5.52 1.7a6.223 6.223 0 0 1 1.939 4.892 7.3 7.3 0 0 1-1.96 5.3c-1.294 1.274-3.4 1.96-6.046 1.96a24.642 24.642 0 0 1-3.215-.16Zm1.778 12.07a11.181 11.181 0 0 0 1.78.083c3.761.022 5.8-2.1 5.8-5.785.02-3.213-1.8-5.256-5.519-5.256a10 10 0 0 0-2.064.182ZM53.084 13.85V8.069L48.758.223h2.02l1.921 3.761c.506 1.031.93 1.86 1.353 2.811h.042c.364-.89.849-1.779 1.375-2.811l1.96-3.761h1.983l-4.55 7.826v5.8ZM60.227 12.82 67.79 1.759v-.058h-6.917V.223h9.2v1.072l-7.524 11.02v.06h7.624v1.477h-9.949ZM83.745 7.865c-.1-1.877-.222-4.2-.222-5.883h-.04c-.485 1.577-1.031 3.316-1.719 5.175l-2.406 6.614h-1.335L75.799 7.28c-.647-1.921-1.173-3.68-1.557-5.3H74.2c-.039 1.7-.14 3.984-.261 6.026l-.364 5.842h-1.678l.95-13.627h2.245l2.324 6.59a64.1 64.1 0 0 1 1.377 4.612h.04c.364-1.375.849-2.894 1.456-4.612l2.425-6.59h2.246l.849 13.627H84.07ZM92.784.405a25.708 25.708 0 0 1 3.761-.283c2.528 0 4.326.586 5.52 1.7a6.217 6.217 0 0 1 1.939 4.892 7.291 7.291 0 0 1-1.96 5.3c-1.294 1.274-3.4 1.96-6.046 1.96a24.659 24.659 0 0 1-3.215-.16Zm1.779 12.07a11.143 11.143 0 0 0 1.778.083c3.761.022 5.805-2.1 5.805-5.785.018-3.213-1.8-5.256-5.52-5.256a10 10 0 0 0-2.063.182ZM106.289.222h1.781V13.85h-1.781zM113.146 9.563l-1.417 4.287h-1.823L114.537.223h2.123l4.649 13.627h-1.879l-1.456-4.287Zm4.469-1.375-1.357-3.921c-.281-.89-.483-1.7-.687-2.487h-.059a34.075 34.075 0 0 1-.667 2.467l-1.339 3.941ZM134.804 7.865c-.1-1.877-.222-4.2-.222-5.883h-.039c-.487 1.577-1.033 3.316-1.721 5.175l-2.4 6.614h-1.336l-2.232-6.491c-.647-1.921-1.173-3.68-1.557-5.3h-.04c-.04 1.7-.14 3.984-.263 6.026l-.364 5.842h-1.676l.952-13.627h2.243l2.325 6.59a64.02 64.02 0 0 1 1.375 4.612h.04c.366-1.375.849-2.894 1.456-4.612l2.427-6.59h2.244l.849 13.627h-1.739ZM146.6 7.463h-5.281v4.912h5.9v1.477h-7.684V.224h7.38v1.477h-5.6v4.3h5.278ZM149.242 13.85V.223h1.939l4.349 6.9a38.35 38.35 0 0 1 2.427 4.427l.061-.018c-.164-1.82-.2-3.478-.2-5.581V.223h1.658V13.85h-1.781l-4.326-6.916a39.189 39.189 0 0 1-2.528-4.548l-.061.02c.1 1.719.121 3.359.121 5.62v5.824ZM165.194 1.719h-4.145v-1.5h10.089v1.5h-4.165v12.132h-1.779ZM177.533 14.072c-3.618 0-6.127-2.789-6.127-6.914 0-4.327 2.669-7.158 6.311-7.158 3.741 0 6.147 2.851 6.147 6.9 0 4.671-2.851 7.177-6.309 7.177Zm.1-1.436c2.791 0 4.368-2.566 4.368-5.658 0-2.712-1.415-5.542-4.348-5.542s-4.388 2.73-4.388 5.682c0 2.873 1.575 5.519 4.348 5.519ZM188.115 13.85 184.657.223h1.86l1.618 6.9c.406 1.719.768 3.4 1.013 4.71h.039c.222-1.353.649-2.973 1.114-4.732l1.818-6.873h1.84l1.658 6.918c.384 1.636.75 3.234.95 4.671h.04c.285-1.5.669-3.017 1.092-4.715l1.8-6.873h1.8l-3.86 13.627h-1.84l-1.721-7.077a42.138 42.138 0 0 1-.888-4.467h-.042a37.169 37.169 0 0 1-1.052 4.451l-1.941 7.094ZM210.017 7.463h-5.279v4.912h5.9v1.477h-7.684V.224h7.38v1.477h-5.6v4.3h5.278ZM216.091.223h1.779v9.118c0 3.623-1.779 4.732-4.123 4.732a5.476 5.476 0 0 1-1.882-.324l.243-1.436a4.178 4.178 0 0 0 1.495.267c1.579 0 2.489-.711 2.489-3.379ZM225.072.405a25.711 25.711 0 0 1 3.761-.283c2.528 0 4.326.586 5.52 1.7a6.223 6.223 0 0 1 1.939 4.892 7.3 7.3 0 0 1-1.96 5.3c-1.294 1.274-3.4 1.96-6.046 1.96a24.645 24.645 0 0 1-3.215-.16Zm1.78 12.07a11.144 11.144 0 0 0 1.778.083c3.761.022 5.805-2.1 5.805-5.785.018-3.213-1.8-5.256-5.52-5.256a9.968 9.968 0 0 0-2.063.182ZM238.557.424a18.7 18.7 0 0 1 3.377-.3 5.638 5.638 0 0 1 3.963 1.129 3.414 3.414 0 0 1 1.072 2.592 3.6 3.6 0 0 1-2.57 3.458v.061a3.459 3.459 0 0 1 2 2.745 24.469 24.469 0 0 0 1.033 3.745h-1.82a16.756 16.756 0 0 1-.89-3.256c-.406-1.879-1.153-2.588-2.75-2.647h-1.658v5.9h-1.759Zm1.759 6.19h1.8c1.881 0 3.074-1.033 3.074-2.59 0-1.756-1.274-2.528-3.134-2.528a7.313 7.313 0 0 0-1.739.165ZM254.753 14.072c-3.62 0-6.127-2.789-6.127-6.914 0-4.327 2.669-7.158 6.311-7.158 3.741 0 6.147 2.851 6.147 6.9 0 4.671-2.851 7.177-6.309 7.177Zm.1-1.436c2.789 0 4.368-2.566 4.368-5.658 0-2.712-1.417-5.542-4.348-5.542s-4.388 2.73-4.388 5.682c0 2.873 1.575 5.519 4.348 5.519ZM273.842 13.243a12.278 12.278 0 0 1-4.206.75 6.4 6.4 0 0 1-7-6.875c0-4.064 2.811-7.037 7.381-7.037a8.533 8.533 0 0 1 3.416.627l-.443 1.436a6.773 6.773 0 0 0-3.015-.586 5.1 5.1 0 0 0-5.478 5.478c0 3.458 2.063 5.5 5.256 5.5a5.788 5.788 0 0 0 2.347-.362V8.109h-2.747V6.693h4.489ZM276.555.222h1.781V13.85h-1.781zM173.583 24.657h1.052v7.18h3.441v.872h-4.494ZM179.374 24.658h1.05v8.053h-1.05zM182.445 32.711v-8.054h1.147l2.568 4.076a22.62 22.62 0 0 1 1.436 2.618l.037-.011c-.1-1.077-.121-2.057-.121-3.3v-3.383h.98v8.054h-1.051l-2.558-4.087a23.119 23.119 0 0 1-1.493-2.689l-.037.015c.061 1.017.072 1.982.072 3.322v3.439ZM190.503 24.658h1.052v8.053h-1.052zM194.791 30.177l-.835 2.531h-1.075l2.737-8.054h1.256l2.746 8.054h-1.11l-.86-2.531Zm2.643-.811-.8-2.318c-.167-.528-.285-1.007-.406-1.471h-.035c-.108.463-.239.967-.4 1.458l-.789 2.331ZM203.337 24.657h1.039v3.88h.035c.217-.313.43-.6.634-.86l2.465-3.02h1.291l-2.916 3.417 3.142 4.636h-1.23l-2.64-3.954-.778.884v3.07h-1.039ZM211.702 30.177l-.836 2.531h-1.075l2.739-8.054h1.252l2.748 8.054h-1.11l-.86-2.531Zm2.642-.811-.8-2.318c-.167-.528-.285-1.007-.4-1.471h-.037c-.108.463-.239.967-.4 1.458l-.789 2.331ZM217.842 24.781a10.758 10.758 0 0 1 1.995-.18 3.351 3.351 0 0 1 2.344.665 2.026 2.026 0 0 1 .632 1.531 2.126 2.126 0 0 1-1.52 2.044v.035a2.056 2.056 0 0 1 1.186 1.627 14.319 14.319 0 0 0 .61 2.208h-1.075a9.966 9.966 0 0 1-.526-1.921c-.239-1.114-.682-1.529-1.625-1.564h-.98v3.486h-1.04Zm1.04 3.655h1.062c1.11 0 1.816-.61 1.816-1.529 0-1.04-.752-1.495-1.853-1.495a4.122 4.122 0 0 0-1.026.1ZM231.287 29.174c-.061-1.11-.132-2.485-.132-3.476h-.022c-.289.93-.61 1.961-1.017 3.059l-1.423 3.906h-.787l-1.314-3.833a36.672 36.672 0 0 1-.921-3.132h-.024c-.022 1-.085 2.353-.156 3.563l-.215 3.451h-.991l.563-8.054h1.325l1.373 3.9c.335.991.6 1.888.814 2.726h.024c.215-.813.5-1.71.859-2.726l1.436-3.9h1.326l.5 8.054h-1.028ZM235.624 30.177l-.835 2.531h-1.077l2.739-8.054h1.254l2.746 8.054h-1.11l-.858-2.531Zm2.642-.811-.8-2.318c-.165-.528-.283-1.007-.4-1.471h-.035c-.108.463-.239.967-.4 1.458l-.789 2.331ZM244.17 24.657h1.041v3.88h.035c.217-.313.43-.6.634-.86l2.463-3.024h1.288l-2.915 3.417 3.142 4.636h-1.227l-2.64-3.954-.778.884v3.07h-1.041ZM252.533 30.177l-.836 2.531h-1.075l2.737-8.054h1.254l2.748 8.054h-1.11l-.86-2.531Zm2.642-.811-.8-2.318c-.167-.528-.285-1.007-.4-1.471h-.037c-.108.463-.239.967-.4 1.458l-.789 2.331ZM264.585 32.355a7.312 7.312 0 0 1-2.487.443 3.786 3.786 0 0 1-4.133-4.064 4.033 4.033 0 0 1 4.359-4.158 5.05 5.05 0 0 1 2.022.371l-.265.847a3.976 3.976 0 0 0-1.778-.346 3.011 3.011 0 0 0-3.239 3.237 2.944 2.944 0 0 0 3.107 3.248 3.4 3.4 0 0 0 1.386-.213v-2.4h-1.625v-.838h2.653ZM268.127 32.711v-3.414l-2.557-4.64h1.193l1.138 2.222c.3.61.548 1.1.8 1.662h.026c.215-.528.5-1.052.813-1.662l1.15-2.222h1.175l-2.689 4.625v3.428ZM274.09 24.657v4.78c0 1.791.8 2.555 1.875 2.555 1.184 0 1.96-.789 1.96-2.555v-4.78h1.052v4.712c0 2.469-1.3 3.474-3.046 3.474-1.651 0-2.892-.934-2.892-3.439v-4.747Z"></path></g></svg>
